# xmcd
#
# Track frame offsets:
#	150
#	57313
#	104732
#	131101
#	165980
#	225233
#	271611
#	309712
#
# Disc length: 4685 seconds
#
# Revision: 1
# Processed by: cddbd v1.5.2PL0 Copyright (c) Steve Scherf et al.
# Submitted via: EZCDAudioConverter 9.1.1.1
#
DISCID=64124b08
DTITLE=Hans Schmidt-Isserstedt - Beethoven 9Symphonies CD3 No.4, 7 [Schumidt-I
DTITLE=sserstedt]
DYEAR=1967
DGENRE=Symphonic
TTITLE0=Symphony No. 4 in B flat major, Op. 60: 1. Adagio - Allegro vivace
TTITLE1=Symphony No. 4 in B flat major, Op. 60: 2. Adagio
TTITLE2=Symphony No. 4 in B flat major, Op. 60: 3. Allegro vivace
TTITLE3=Symphony No. 4 in B flat major, Op. 60: 4. Allegro ma non troppo
TTITLE4=Symphony No. 7 in A major, Op. 92: 1. Poco sostenuto - vivace
TTITLE5=Symphony No. 7 in A major, Op. 92: 2. Allegretto
TTITLE6=Symphony No. 7 in A major, Op. 92: 3. Presto
TTITLE7=Symphony No. 7 in A major, Op. 92: 4. Allegro con brio
EXTD=
EXTT0=
EXTT1=
EXTT2=
EXTT3=
EXTT4=
EXTT5=
EXTT6=
EXTT7=
PLAYORDER=
